<?xml version="1.0" encoding="UTF-8"?>
<svg xmlns="http://www.w3.org/2000/svg" xmlns:xlink="http://www.w3.org/1999/xlink" width="100pt" height="100pt" viewBox="0 0 100 100" version="1.1">
<g id="surface1">
<path fill="gray" d="M 84.917969 35.707031 L 79.792969 43.417969 C 84.8125 53.429688 84.46875 65.296875 78.875 75 L 21.125 75 C 13.777344 62.253906 15.65625 46.195312 25.746094 35.488281 C 35.839844 24.78125 51.757812 21.960938 64.917969 28.542969 L 72.625 23.417969 C 56.472656 13.058594 35.339844 15.070312 21.429688 28.289062 C 7.523438 41.503906 4.4375 62.507812 13.957031 79.167969 C 15.4375 81.730469 18.164062 83.316406 21.125 83.332031 L 78.832031 83.332031 C 81.824219 83.34375 84.589844 81.753906 86.082031 79.167969 C 93.910156 65.605469 93.476562 48.804688 84.957031 35.667969 Z M 84.917969 35.707031 "/>
<path fill="gray" d="M 44.125 64.207031 C 45.6875 65.773438 47.808594 66.652344 50.019531 66.652344 C 52.234375 66.652344 54.355469 65.773438 55.917969 64.207031 L 79.5 28.832031 L 44.125 52.417969 C 42.558594 53.980469 41.679688 56.101562 41.679688 58.3125 C 41.679688 60.523438 42.558594 62.644531 44.125 64.207031 Z M 44.125 64.207031 "/>
</g>
</svg>
